<mxfile host="app.diagrams.net" agent="Mozilla/5.0 (Windows NT 10.0; Win64; x64) AppleWebKit/537.36 (KHTML, like Gecko) Chrome/136.0.0.0 Safari/537.36 Edg/136.0.0.0" version="27.0.6" pages="2">
  <diagram id="97tm-h5Ckm5sz74WQkq5" name="displayHabitHistory">
    <mxGraphModel dx="1034" dy="570" grid="1" gridSize="10" guides="1" tooltips="1" connect="1" arrows="1" fold="1" page="1" pageScale="1" pageWidth="850" pageHeight="1100" math="0" shadow="0">
      <root>
        <mxCell id="0" />
        <mxCell id="1" parent="0" />
        <mxCell id="gK8piUCHMvRaqXS9n0kf-1" value="User" style="shape=umlActor;verticalLabelPosition=bottom;labelBackgroundColor=#ffffff;verticalAlign=top;html=1;strokeColor=#000066;fillColor=#FF8000;fontFamily=Tahoma;fontSize=14;fontColor=#000066;" parent="1" vertex="1">
          <mxGeometry x="140" y="470" width="30" height="60" as="geometry" />
        </mxCell>
        <mxCell id="gK8piUCHMvRaqXS9n0kf-2" value=": HomePage" style="rounded=0;whiteSpace=wrap;html=1;labelBackgroundColor=#ffffff;strokeColor=#000066;fillColor=none;fontFamily=Tahoma;fontSize=14;fontColor=#000066;" parent="1" vertex="1">
          <mxGeometry x="330" y="470" width="120" height="60" as="geometry" />
        </mxCell>
        <mxCell id="gK8piUCHMvRaqXS9n0kf-3" value=": ProfilePage" style="rounded=0;whiteSpace=wrap;html=1;labelBackgroundColor=#ffffff;strokeColor=#000066;fillColor=none;fontFamily=Tahoma;fontSize=14;fontColor=#000066;" parent="1" vertex="1">
          <mxGeometry x="330" y="650" width="120" height="60" as="geometry" />
        </mxCell>
        <mxCell id="gK8piUCHMvRaqXS9n0kf-4" value=": ProfileController" style="rounded=0;whiteSpace=wrap;html=1;labelBackgroundColor=#ffffff;strokeColor=#000066;fillColor=none;fontFamily=Tahoma;fontSize=14;fontColor=#000066;" parent="1" vertex="1">
          <mxGeometry x="740" y="650" width="120" height="60" as="geometry" />
        </mxCell>
        <mxCell id="gK8piUCHMvRaqXS9n0kf-5" value=": NotificationModule" style="rounded=0;whiteSpace=wrap;html=1;labelBackgroundColor=#ffffff;strokeColor=#000066;fillColor=none;fontFamily=Tahoma;fontSize=14;fontColor=#000066;" parent="1" vertex="1">
          <mxGeometry x="530" y="770" width="140" height="60" as="geometry" />
        </mxCell>
        <mxCell id="gK8piUCHMvRaqXS9n0kf-6" value=": Database" style="rounded=0;whiteSpace=wrap;html=1;labelBackgroundColor=#ffffff;strokeColor=#000066;fillColor=none;fontFamily=Tahoma;fontSize=14;fontColor=#000066;" parent="1" vertex="1">
          <mxGeometry x="740" y="470" width="120" height="60" as="geometry" />
        </mxCell>
        <mxCell id="gK8piUCHMvRaqXS9n0kf-7" value="" style="endArrow=classic;html=1;fontFamily=Tahoma;fontSize=14;fontColor=#000066;" parent="1" edge="1">
          <mxGeometry width="50" height="50" relative="1" as="geometry">
            <mxPoint x="180" y="470" as="sourcePoint" />
            <mxPoint x="320" y="470" as="targetPoint" />
            <Array as="points">
              <mxPoint x="260" y="470" />
            </Array>
          </mxGeometry>
        </mxCell>
        <mxCell id="gK8piUCHMvRaqXS9n0kf-8" value="1: viewProfile()" style="text;html=1;resizable=0;points=[];align=center;verticalAlign=middle;labelBackgroundColor=#ffffff;fontSize=14;fontFamily=Tahoma;fontColor=#000066;" parent="gK8piUCHMvRaqXS9n0kf-7" vertex="1" connectable="0">
          <mxGeometry x="-0.6182" y="4" relative="1" as="geometry">
            <mxPoint x="45" y="-16" as="offset" />
          </mxGeometry>
        </mxCell>
        <mxCell id="gK8piUCHMvRaqXS9n0kf-9" style="edgeStyle=orthogonalEdgeStyle;rounded=0;orthogonalLoop=1;jettySize=auto;html=1;fontFamily=Tahoma;fontSize=14;fontColor=#000066;endArrow=none;endFill=0;fillColor=#ffe6cc;strokeColor=#d79b00;entryX=0;entryY=0.5;entryDx=0;entryDy=0;" parent="1" source="gK8piUCHMvRaqXS9n0kf-1" target="gK8piUCHMvRaqXS9n0kf-2" edge="1">
          <mxGeometry relative="1" as="geometry">
            <mxPoint x="210" y="490" as="sourcePoint" />
            <mxPoint x="380" y="490" as="targetPoint" />
          </mxGeometry>
        </mxCell>
        <mxCell id="gK8piUCHMvRaqXS9n0kf-10" value="" style="endArrow=classic;html=1;rounded=0;" parent="1" edge="1">
          <mxGeometry width="50" height="50" relative="1" as="geometry">
            <mxPoint x="370" y="550" as="sourcePoint" />
            <mxPoint x="370" y="610" as="targetPoint" />
          </mxGeometry>
        </mxCell>
        <mxCell id="gK8piUCHMvRaqXS9n0kf-11" style="edgeStyle=orthogonalEdgeStyle;rounded=0;orthogonalLoop=1;jettySize=auto;html=1;fontFamily=Tahoma;fontSize=14;fontColor=#000066;endArrow=none;endFill=0;fillColor=#ffe6cc;strokeColor=#d79b00;entryX=0.5;entryY=0;entryDx=0;entryDy=0;exitX=0.5;exitY=1;exitDx=0;exitDy=0;" parent="1" source="gK8piUCHMvRaqXS9n0kf-2" target="gK8piUCHMvRaqXS9n0kf-3" edge="1">
          <mxGeometry relative="1" as="geometry">
            <mxPoint x="390" y="560" as="sourcePoint" />
            <mxPoint x="560" y="560" as="targetPoint" />
          </mxGeometry>
        </mxCell>
        <mxCell id="gK8piUCHMvRaqXS9n0kf-12" value="1.1: navigate(&quot;/profile&quot;)&lt;div&gt;&lt;br&gt;&lt;/div&gt;" style="text;html=1;resizable=0;points=[];align=center;verticalAlign=middle;labelBackgroundColor=#ffffff;fontSize=14;fontFamily=Tahoma;fontColor=#000066;" parent="1" vertex="1" connectable="0">
          <mxGeometry x="280" y="580" as="geometry" />
        </mxCell>
        <mxCell id="gK8piUCHMvRaqXS9n0kf-14" style="edgeStyle=orthogonalEdgeStyle;rounded=0;orthogonalLoop=1;jettySize=auto;html=1;fontFamily=Tahoma;fontSize=14;fontColor=#000066;endArrow=none;endFill=0;fillColor=#ffe6cc;strokeColor=#d79b00;entryX=0;entryY=0.5;entryDx=0;entryDy=0;exitX=1;exitY=0.5;exitDx=0;exitDy=0;" parent="1" source="gK8piUCHMvRaqXS9n0kf-3" target="gK8piUCHMvRaqXS9n0kf-4" edge="1">
          <mxGeometry relative="1" as="geometry">
            <mxPoint x="560" y="700" as="sourcePoint" />
            <mxPoint x="720" y="700" as="targetPoint" />
          </mxGeometry>
        </mxCell>
        <mxCell id="gK8piUCHMvRaqXS9n0kf-15" style="edgeStyle=orthogonalEdgeStyle;rounded=0;orthogonalLoop=1;jettySize=auto;html=1;fontFamily=Tahoma;fontSize=14;fontColor=#000066;endArrow=none;endFill=0;fillColor=#ffe6cc;strokeColor=#d79b00;entryX=0.5;entryY=1;entryDx=0;entryDy=0;exitX=0.5;exitY=0;exitDx=0;exitDy=0;" parent="1" source="gK8piUCHMvRaqXS9n0kf-4" target="gK8piUCHMvRaqXS9n0kf-6" edge="1">
          <mxGeometry relative="1" as="geometry">
            <mxPoint x="760" y="600" as="sourcePoint" />
            <mxPoint x="920" y="600" as="targetPoint" />
            <Array as="points">
              <mxPoint x="800" y="590" />
              <mxPoint x="800" y="590" />
            </Array>
          </mxGeometry>
        </mxCell>
        <mxCell id="gK8piUCHMvRaqXS9n0kf-16" value="" style="endArrow=classic;html=1;fontFamily=Tahoma;fontSize=14;fontColor=#000066;" parent="1" edge="1">
          <mxGeometry width="50" height="50" relative="1" as="geometry">
            <mxPoint x="480" y="660" as="sourcePoint" />
            <mxPoint x="640" y="660" as="targetPoint" />
            <Array as="points" />
          </mxGeometry>
        </mxCell>
        <mxCell id="gK8piUCHMvRaqXS9n0kf-17" value="1.2: getUserProfile(userId)" style="text;html=1;resizable=0;points=[];align=center;verticalAlign=middle;labelBackgroundColor=#ffffff;fontSize=14;fontFamily=Tahoma;fontColor=#000066;" parent="gK8piUCHMvRaqXS9n0kf-16" vertex="1" connectable="0">
          <mxGeometry x="-0.6182" y="4" relative="1" as="geometry">
            <mxPoint x="43" y="-16" as="offset" />
          </mxGeometry>
        </mxCell>
        <mxCell id="gK8piUCHMvRaqXS9n0kf-18" value="" style="endArrow=classic;html=1;fontFamily=Tahoma;fontSize=14;fontColor=#000066;" parent="1" edge="1">
          <mxGeometry width="50" height="50" relative="1" as="geometry">
            <mxPoint x="820" y="620" as="sourcePoint" />
            <mxPoint x="820" y="540" as="targetPoint" />
            <Array as="points" />
          </mxGeometry>
        </mxCell>
        <mxCell id="gK8piUCHMvRaqXS9n0kf-19" value="1.3: getUser(userId)" style="text;html=1;resizable=0;points=[];align=center;verticalAlign=middle;labelBackgroundColor=#ffffff;fontSize=14;fontFamily=Tahoma;fontColor=#000066;" parent="gK8piUCHMvRaqXS9n0kf-18" vertex="1" connectable="0">
          <mxGeometry x="-0.6182" y="4" relative="1" as="geometry">
            <mxPoint x="94" y="-25" as="offset" />
          </mxGeometry>
        </mxCell>
        <mxCell id="gK8piUCHMvRaqXS9n0kf-20" value="" style="endArrow=classic;html=1;rounded=0;" parent="1" edge="1">
          <mxGeometry width="50" height="50" relative="1" as="geometry">
            <mxPoint x="780" y="540" as="sourcePoint" />
            <mxPoint x="780" y="620" as="targetPoint" />
          </mxGeometry>
        </mxCell>
        <mxCell id="gK8piUCHMvRaqXS9n0kf-21" value="1.3.1: returnUserProfile()" style="text;html=1;resizable=0;points=[];align=center;verticalAlign=middle;labelBackgroundColor=#ffffff;fontSize=14;fontFamily=Tahoma;fontColor=#000066;" parent="1" vertex="1" connectable="0">
          <mxGeometry x="680" y="560" as="geometry">
            <mxPoint y="-4" as="offset" />
          </mxGeometry>
        </mxCell>
        <mxCell id="gK8piUCHMvRaqXS9n0kf-22" value="" style="endArrow=classic;html=1;rounded=0;" parent="1" edge="1">
          <mxGeometry width="50" height="50" relative="1" as="geometry">
            <mxPoint x="640" y="700" as="sourcePoint" />
            <mxPoint x="480" y="700" as="targetPoint" />
          </mxGeometry>
        </mxCell>
        <mxCell id="gK8piUCHMvRaqXS9n0kf-23" value="1.4: returnUserProfile()" style="text;html=1;resizable=0;points=[];align=center;verticalAlign=middle;labelBackgroundColor=#ffffff;fontSize=14;fontFamily=Tahoma;fontColor=#000066;" parent="1" vertex="1" connectable="0">
          <mxGeometry x="560" y="720" as="geometry">
            <mxPoint y="-4" as="offset" />
          </mxGeometry>
        </mxCell>
        <mxCell id="gK8piUCHMvRaqXS9n0kf-24" style="edgeStyle=orthogonalEdgeStyle;rounded=0;orthogonalLoop=1;jettySize=auto;html=1;entryX=0;entryY=0.5;entryDx=0;entryDy=0;startArrow=none;startFill=0;endArrow=none;endFill=0;fontFamily=Tahoma;fontSize=14;fontColor=#000066;fillColor=#ffe6cc;strokeColor=#d79b00;exitX=0.5;exitY=1;exitDx=0;exitDy=0;" parent="1" source="gK8piUCHMvRaqXS9n0kf-3" target="gK8piUCHMvRaqXS9n0kf-3" edge="1">
          <mxGeometry relative="1" as="geometry">
            <Array as="points">
              <mxPoint x="390" y="740" />
              <mxPoint x="290" y="740" />
              <mxPoint x="290" y="680" />
            </Array>
            <mxPoint x="300" y="700" as="sourcePoint" />
            <mxPoint x="260" y="710" as="targetPoint" />
          </mxGeometry>
        </mxCell>
        <mxCell id="gK8piUCHMvRaqXS9n0kf-25" value="1.5: showUserProfile(userId)" style="text;html=1;resizable=0;points=[];align=center;verticalAlign=middle;labelBackgroundColor=#ffffff;fontSize=14;fontFamily=Tahoma;fontColor=#000066;" parent="1" vertex="1" connectable="0">
          <mxGeometry x="290" y="780" as="geometry">
            <mxPoint x="1" as="offset" />
          </mxGeometry>
        </mxCell>
        <mxCell id="gK8piUCHMvRaqXS9n0kf-27" style="edgeStyle=orthogonalEdgeStyle;rounded=0;orthogonalLoop=1;jettySize=auto;html=1;fontFamily=Tahoma;fontSize=14;fontColor=#000066;endArrow=none;endFill=0;fillColor=#ffe6cc;strokeColor=#d79b00;entryX=0;entryY=0.25;entryDx=0;entryDy=0;" parent="1" target="gK8piUCHMvRaqXS9n0kf-3" edge="1">
          <mxGeometry relative="1" as="geometry">
            <mxPoint x="160" y="560" as="sourcePoint" />
            <mxPoint x="310" y="650" as="targetPoint" />
            <Array as="points">
              <mxPoint x="160" y="665" />
            </Array>
          </mxGeometry>
        </mxCell>
        <mxCell id="gK8piUCHMvRaqXS9n0kf-28" value="2: editProfile(userId)" style="text;html=1;resizable=0;points=[];align=center;verticalAlign=middle;labelBackgroundColor=#ffffff;fontSize=14;fontFamily=Tahoma;fontColor=#000066;" parent="1" vertex="1" connectable="0">
          <mxGeometry x="240" y="630" as="geometry">
            <mxPoint x="-2" y="-1" as="offset" />
          </mxGeometry>
        </mxCell>
        <mxCell id="gK8piUCHMvRaqXS9n0kf-29" value="" style="endArrow=classic;html=1;rounded=0;" parent="1" edge="1">
          <mxGeometry width="50" height="50" relative="1" as="geometry">
            <mxPoint x="390" y="750" as="sourcePoint" />
            <mxPoint x="280" y="710" as="targetPoint" />
            <Array as="points">
              <mxPoint x="280" y="750" />
            </Array>
          </mxGeometry>
        </mxCell>
        <mxCell id="gK8piUCHMvRaqXS9n0kf-30" value="" style="endArrow=classic;html=1;rounded=0;" parent="1" edge="1">
          <mxGeometry width="50" height="50" relative="1" as="geometry">
            <mxPoint x="180" y="650" as="sourcePoint" />
            <mxPoint x="300" y="650" as="targetPoint" />
          </mxGeometry>
        </mxCell>
        <mxCell id="gK8piUCHMvRaqXS9n0kf-31" value="2.1: editUserProfile(userId, profile)" style="text;html=1;resizable=0;points=[];align=center;verticalAlign=middle;labelBackgroundColor=#ffffff;fontSize=14;fontFamily=Tahoma;fontColor=#000066;" parent="1" vertex="1" connectable="0">
          <mxGeometry x="555" y="610" as="geometry" />
        </mxCell>
        <mxCell id="gK8piUCHMvRaqXS9n0kf-32" value="2.2.[valid = true]: updateUserProfile(userId, profile)" style="text;html=1;resizable=0;points=[];align=center;verticalAlign=middle;labelBackgroundColor=#ffffff;fontSize=14;fontFamily=Tahoma;fontColor=#000066;" parent="1" vertex="1" connectable="0">
          <mxGeometry x="1010" y="610" as="geometry" />
        </mxCell>
        <mxCell id="gK8piUCHMvRaqXS9n0kf-37" style="edgeStyle=orthogonalEdgeStyle;rounded=0;orthogonalLoop=1;jettySize=auto;html=1;fontFamily=Tahoma;fontSize=14;fontColor=#000066;endArrow=none;endFill=0;fillColor=#ffe6cc;strokeColor=#d79b00;entryX=1;entryY=0.5;entryDx=0;entryDy=0;exitX=0.405;exitY=1.014;exitDx=0;exitDy=0;exitPerimeter=0;" parent="1" source="gK8piUCHMvRaqXS9n0kf-4" target="gK8piUCHMvRaqXS9n0kf-5" edge="1">
          <mxGeometry relative="1" as="geometry">
            <mxPoint x="690" y="730" as="sourcePoint" />
            <mxPoint x="690" y="610" as="targetPoint" />
            <Array as="points">
              <mxPoint x="789" y="800" />
            </Array>
          </mxGeometry>
        </mxCell>
        <mxCell id="gK8piUCHMvRaqXS9n0kf-38" value="2.3a: createSuccessNotification()" style="text;html=1;resizable=0;points=[];align=center;verticalAlign=middle;labelBackgroundColor=#ffffff;fontSize=14;fontFamily=Tahoma;fontColor=#000066;" parent="1" vertex="1" connectable="0">
          <mxGeometry x="780" y="840" as="geometry">
            <mxPoint y="-4" as="offset" />
          </mxGeometry>
        </mxCell>
        <mxCell id="gK8piUCHMvRaqXS9n0kf-39" value="" style="endArrow=classic;html=1;rounded=0;" parent="1" edge="1">
          <mxGeometry width="50" height="50" relative="1" as="geometry">
            <mxPoint x="800" y="780" as="sourcePoint" />
            <mxPoint x="710" y="810" as="targetPoint" />
            <Array as="points">
              <mxPoint x="800" y="810" />
              <mxPoint x="760" y="810" />
            </Array>
          </mxGeometry>
        </mxCell>
        <mxCell id="gK8piUCHMvRaqXS9n0kf-41" style="edgeStyle=orthogonalEdgeStyle;rounded=0;orthogonalLoop=1;jettySize=auto;html=1;fontFamily=Tahoma;fontSize=14;fontColor=#000066;endArrow=none;endFill=0;fillColor=#ffe6cc;strokeColor=#d79b00;exitX=0;exitY=0.5;exitDx=0;exitDy=0;" parent="1" source="gK8piUCHMvRaqXS9n0kf-5" edge="1">
          <mxGeometry relative="1" as="geometry">
            <mxPoint x="430" y="840" as="sourcePoint" />
            <mxPoint x="410" y="710" as="targetPoint" />
            <Array as="points">
              <mxPoint x="410" y="800" />
            </Array>
          </mxGeometry>
        </mxCell>
        <mxCell id="gK8piUCHMvRaqXS9n0kf-42" value="2.4a: displaySuccess()" style="text;html=1;resizable=0;points=[];align=center;verticalAlign=middle;labelBackgroundColor=#ffffff;fontSize=14;fontFamily=Tahoma;fontColor=#000066;" parent="1" vertex="1" connectable="0">
          <mxGeometry x="400" y="840" as="geometry">
            <mxPoint x="19" y="-1" as="offset" />
          </mxGeometry>
        </mxCell>
        <mxCell id="gK8piUCHMvRaqXS9n0kf-43" value="" style="endArrow=classic;html=1;rounded=0;" parent="1" edge="1">
          <mxGeometry width="50" height="50" relative="1" as="geometry">
            <mxPoint x="520" y="810" as="sourcePoint" />
            <mxPoint x="400" y="760" as="targetPoint" />
            <Array as="points">
              <mxPoint x="400" y="810" />
            </Array>
          </mxGeometry>
        </mxCell>
        <mxCell id="gK8piUCHMvRaqXS9n0kf-50" value="2.1.1: valid = validateProfile(userId, profile): boolean" style="text;html=1;resizable=0;points=[];align=center;verticalAlign=middle;labelBackgroundColor=#ffffff;fontSize=14;fontFamily=Tahoma;fontColor=#000066;" parent="1" vertex="1" connectable="0">
          <mxGeometry x="980" y="800" as="geometry">
            <mxPoint y="-4" as="offset" />
          </mxGeometry>
        </mxCell>
        <mxCell id="gK8piUCHMvRaqXS9n0kf-51" value="" style="endArrow=classic;html=1;fontFamily=Tahoma;fontSize=14;fontColor=#000066;" parent="1" edge="1">
          <mxGeometry width="50" height="50" relative="1" as="geometry">
            <mxPoint x="900" y="690" as="sourcePoint" />
            <mxPoint x="830" y="780" as="targetPoint" />
            <Array as="points">
              <mxPoint x="900" y="780" />
            </Array>
          </mxGeometry>
        </mxCell>
        <mxCell id="gK8piUCHMvRaqXS9n0kf-53" style="edgeStyle=orthogonalEdgeStyle;rounded=0;orthogonalLoop=1;jettySize=auto;html=1;fontFamily=Tahoma;fontSize=14;fontColor=#000066;endArrow=none;endFill=0;fillColor=#ffe6cc;strokeColor=#d79b00;entryX=0.5;entryY=1;entryDx=0;entryDy=0;exitX=1;exitY=0.5;exitDx=0;exitDy=0;" parent="1" source="gK8piUCHMvRaqXS9n0kf-4" target="gK8piUCHMvRaqXS9n0kf-4" edge="1">
          <mxGeometry relative="1" as="geometry">
            <mxPoint x="890" y="650" as="sourcePoint" />
            <mxPoint x="890" y="530" as="targetPoint" />
            <Array as="points">
              <mxPoint x="890" y="680" />
              <mxPoint x="890" y="760" />
              <mxPoint x="800" y="760" />
            </Array>
          </mxGeometry>
        </mxCell>
        <mxCell id="gK8piUCHMvRaqXS9n0kf-54" value="2.2.[valid = false]: createErrorNotification()" style="text;html=1;resizable=0;points=[];align=center;verticalAlign=middle;labelBackgroundColor=#ffffff;fontSize=14;fontFamily=Tahoma;fontColor=#000066;" parent="1" vertex="1" connectable="0">
          <mxGeometry x="810" y="860" as="geometry" />
        </mxCell>
        <mxCell id="gK8piUCHMvRaqXS9n0kf-55" value="2.3b: displayError()" style="text;html=1;resizable=0;points=[];align=center;verticalAlign=middle;labelBackgroundColor=#ffffff;fontSize=14;fontFamily=Tahoma;fontColor=#000066;" parent="1" vertex="1" connectable="0">
          <mxGeometry x="390" y="870" as="geometry">
            <mxPoint x="21" y="-5" as="offset" />
          </mxGeometry>
        </mxCell>
      </root>
    </mxGraphModel>
  </diagram>
  <diagram id="osA8b_FAwORKnyaBnRQK" name="habitCheckin">
    <mxGraphModel dx="946" dy="908" grid="1" gridSize="10" guides="1" tooltips="1" connect="1" arrows="1" fold="1" page="1" pageScale="1" pageWidth="850" pageHeight="1100" math="0" shadow="0">
      <root>
        <mxCell id="XAbNOAjU0VVLo9-ZD2AN-0" />
        <mxCell id="XAbNOAjU0VVLo9-ZD2AN-1" parent="XAbNOAjU0VVLo9-ZD2AN-0" />
        <mxCell id="4sUf3NCMvguzIFDBFmBf-1" value="&lt;font style=&quot;font-size: 14px&quot;&gt;SD checkin&lt;/font&gt;" style="shape=umlFrame;whiteSpace=wrap;html=1;strokeColor=#000066;fillColor=#FF8000;fontFamily=Tahoma;fontSize=10;fontColor=#000066;align=center;width=100;height=30;" parent="XAbNOAjU0VVLo9-ZD2AN-1" vertex="1">
          <mxGeometry x="40" y="415" width="640" height="501" as="geometry" />
        </mxCell>
        <mxCell id="4sUf3NCMvguzIFDBFmBf-2" value="" style="shape=umlLifeline;participant=umlActor;perimeter=lifelinePerimeter;whiteSpace=wrap;html=1;container=1;collapsible=0;recursiveResize=0;verticalAlign=top;spacingTop=36;labelBackgroundColor=#ffffff;outlineConnect=0;strokeColor=#000066;fillColor=#FF8000;fontFamily=Tahoma;fontSize=14;fontColor=#000066;" parent="XAbNOAjU0VVLo9-ZD2AN-1" vertex="1">
          <mxGeometry x="89" y="497" width="20" height="399" as="geometry" />
        </mxCell>
        <mxCell id="4sUf3NCMvguzIFDBFmBf-3" value="" style="html=1;points=[];perimeter=orthogonalPerimeter;strokeColor=#000066;fillColor=#FF8000;fontFamily=Tahoma;fontSize=10;fontColor=#000066;align=center;" parent="4sUf3NCMvguzIFDBFmBf-2" vertex="1">
          <mxGeometry x="5" y="143" width="10" height="24" as="geometry" />
        </mxCell>
        <mxCell id="4sUf3NCMvguzIFDBFmBf-4" value="User: Person" style="text;html=1;resizable=0;points=[];autosize=1;align=center;verticalAlign=top;spacingTop=-4;fontSize=14;fontFamily=Tahoma;fontColor=#000066;" parent="XAbNOAjU0VVLo9-ZD2AN-1" vertex="1">
          <mxGeometry x="80" y="456" width="90" height="20" as="geometry" />
        </mxCell>
        <mxCell id="4sUf3NCMvguzIFDBFmBf-5" value="" style="shape=umlLifeline;participant=umlControl;perimeter=lifelinePerimeter;whiteSpace=wrap;html=1;container=1;collapsible=0;recursiveResize=0;verticalAlign=top;spacingTop=36;labelBackgroundColor=#ffffff;outlineConnect=0;strokeColor=#000066;fillColor=#FF8000;fontFamily=Tahoma;fontSize=14;fontColor=#000066;" parent="XAbNOAjU0VVLo9-ZD2AN-1" vertex="1">
          <mxGeometry x="199" y="493" width="40" height="403" as="geometry" />
        </mxCell>
        <mxCell id="4sUf3NCMvguzIFDBFmBf-6" value="" style="html=1;points=[];perimeter=orthogonalPerimeter;strokeColor=#000066;fillColor=#FF8000;fontFamily=Tahoma;fontSize=14;fontColor=#000066;align=center;" parent="4sUf3NCMvguzIFDBFmBf-5" vertex="1">
          <mxGeometry x="15" y="83" width="10" height="287" as="geometry" />
        </mxCell>
        <mxCell id="4sUf3NCMvguzIFDBFmBf-7" value="" style="html=1;points=[];perimeter=orthogonalPerimeter;strokeColor=#000066;fillColor=#FF8000;fontFamily=Tahoma;fontSize=10;fontColor=#000066;align=center;" parent="4sUf3NCMvguzIFDBFmBf-5" vertex="1">
          <mxGeometry x="20" y="113" width="10" height="67" as="geometry" />
        </mxCell>
        <mxCell id="4sUf3NCMvguzIFDBFmBf-8" value="newCheckin()" style="edgeStyle=orthogonalEdgeStyle;html=1;align=left;spacingLeft=2;endArrow=block;rounded=0;strokeColor=#FF8000;fontFamily=Tahoma;fontSize=10;fontColor=#000066;exitX=1.1;exitY=0.025;exitPerimeter=0;entryX=1;entryY=0.957;entryPerimeter=0;" parent="4sUf3NCMvguzIFDBFmBf-5" source="4sUf3NCMvguzIFDBFmBf-7" target="4sUf3NCMvguzIFDBFmBf-7" edge="1">
          <mxGeometry relative="1" as="geometry">
            <mxPoint x="25" y="93" as="sourcePoint" />
            <Array as="points">
              <mxPoint x="31" y="114" />
              <mxPoint x="50" y="114" />
              <mxPoint x="50" y="177" />
            </Array>
          </mxGeometry>
        </mxCell>
        <mxCell id="4sUf3NCMvguzIFDBFmBf-9" value="&lt;div style=&quot;text-align: center&quot;&gt;&lt;span&gt;Habit Tracker&amp;nbsp;&lt;/span&gt;&lt;/div&gt;&lt;div style=&quot;text-align: center&quot;&gt;app UI&lt;/div&gt;" style="text;html=1;resizable=0;points=[];autosize=1;align=left;verticalAlign=top;spacingTop=-4;fontSize=14;fontFamily=Tahoma;fontColor=#000066;" parent="XAbNOAjU0VVLo9-ZD2AN-1" vertex="1">
          <mxGeometry x="175" y="456" width="100" height="40" as="geometry" />
        </mxCell>
        <mxCell id="4sUf3NCMvguzIFDBFmBf-10" value="" style="shape=umlLifeline;participant=umlEntity;perimeter=lifelinePerimeter;whiteSpace=wrap;html=1;container=1;collapsible=0;recursiveResize=0;verticalAlign=top;spacingTop=36;labelBackgroundColor=#ffffff;outlineConnect=0;fontFamily=Tahoma;fontSize=14;fontColor=#000066;align=center;strokeColor=#000066;fillColor=#FF8000;" parent="XAbNOAjU0VVLo9-ZD2AN-1" vertex="1">
          <mxGeometry x="480" y="495" width="44" height="401" as="geometry" />
        </mxCell>
        <mxCell id="4sUf3NCMvguzIFDBFmBf-11" value="Authentication&amp;nbsp;&lt;div&gt;Service&lt;/div&gt;" style="text;html=1;resizable=0;points=[];autosize=1;align=center;verticalAlign=top;spacingTop=-4;fontSize=14;fontFamily=Tahoma;fontColor=#000066;" parent="XAbNOAjU0VVLo9-ZD2AN-1" vertex="1">
          <mxGeometry x="441" y="456" width="110" height="40" as="geometry" />
        </mxCell>
        <mxCell id="4sUf3NCMvguzIFDBFmBf-12" value="" style="shape=umlLifeline;participant=umlBoundary;perimeter=lifelinePerimeter;whiteSpace=wrap;html=1;container=1;collapsible=0;recursiveResize=0;verticalAlign=top;spacingTop=36;labelBackgroundColor=#ffffff;outlineConnect=0;fontFamily=Tahoma;fontSize=14;fontColor=#000066;align=center;strokeColor=#000066;fillColor=#FF8000;" parent="XAbNOAjU0VVLo9-ZD2AN-1" vertex="1">
          <mxGeometry x="350" y="495" width="49" height="401" as="geometry" />
        </mxCell>
        <mxCell id="4sUf3NCMvguzIFDBFmBf-13" value="" style="html=1;points=[];perimeter=orthogonalPerimeter;strokeColor=#000066;fillColor=#FF8000;fontFamily=Tahoma;fontSize=10;fontColor=#000066;align=center;" parent="4sUf3NCMvguzIFDBFmBf-12" vertex="1">
          <mxGeometry x="20" y="222" width="10" height="19" as="geometry" />
        </mxCell>
        <mxCell id="4sUf3NCMvguzIFDBFmBf-14" value="&lt;div style=&quot;text-align: center&quot;&gt;Data store&lt;/div&gt;" style="text;html=1;resizable=0;points=[];autosize=1;align=center;verticalAlign=top;spacingTop=-4;fontSize=14;fontFamily=Tahoma;fontColor=#000066;" parent="XAbNOAjU0VVLo9-ZD2AN-1" vertex="1">
          <mxGeometry x="332" y="456" width="80" height="20" as="geometry" />
        </mxCell>
        <mxCell id="4sUf3NCMvguzIFDBFmBf-15" value="" style="shape=umlLifeline;participant=umlActor;perimeter=lifelinePerimeter;whiteSpace=wrap;html=1;container=1;collapsible=0;recursiveResize=0;verticalAlign=top;spacingTop=36;labelBackgroundColor=#ffffff;outlineConnect=0;strokeColor=#000066;fillColor=#FF8000;fontFamily=Tahoma;fontSize=14;fontColor=#000066;align=center;" parent="XAbNOAjU0VVLo9-ZD2AN-1" vertex="1">
          <mxGeometry x="591" y="497" width="20" height="399" as="geometry" />
        </mxCell>
        <mxCell id="4sUf3NCMvguzIFDBFmBf-16" value="" style="html=1;points=[];perimeter=orthogonalPerimeter;strokeColor=#000066;fillColor=#FF8000;fontFamily=Tahoma;fontSize=10;fontColor=#000066;align=center;" parent="4sUf3NCMvguzIFDBFmBf-15" vertex="1">
          <mxGeometry x="5" y="303" width="10" height="11" as="geometry" />
        </mxCell>
        <mxCell id="4sUf3NCMvguzIFDBFmBf-17" value="&lt;div style=&quot;text-align: center&quot;&gt;&lt;span&gt;Coach: Person&lt;/span&gt;&lt;/div&gt;" style="text;html=1;resizable=0;points=[];autosize=1;align=left;verticalAlign=top;spacingTop=-4;fontSize=14;fontFamily=Tahoma;fontColor=#000066;" parent="XAbNOAjU0VVLo9-ZD2AN-1" vertex="1">
          <mxGeometry x="551" y="456" width="100" height="20" as="geometry" />
        </mxCell>
        <mxCell id="4sUf3NCMvguzIFDBFmBf-18" value="&lt;font style=&quot;font-size: 10px;&quot;&gt;habit checkin&lt;/font&gt;" style="html=1;verticalAlign=bottom;endArrow=block;entryX=0;entryY=0;strokeColor=#FF8000;fontFamily=Tahoma;fontSize=10;fontColor=#000066;" parent="XAbNOAjU0VVLo9-ZD2AN-1" source="4sUf3NCMvguzIFDBFmBf-2" target="4sUf3NCMvguzIFDBFmBf-6" edge="1">
          <mxGeometry relative="1" as="geometry">
            <mxPoint x="144" y="576" as="sourcePoint" />
          </mxGeometry>
        </mxCell>
        <mxCell id="4sUf3NCMvguzIFDBFmBf-19" value="" style="html=1;verticalAlign=bottom;endArrow=open;dashed=1;endSize=8;exitX=0;exitY=0.95;strokeColor=#FF8000;fontFamily=Tahoma;fontSize=14;fontColor=#000066;" parent="XAbNOAjU0VVLo9-ZD2AN-1" source="4sUf3NCMvguzIFDBFmBf-6" target="4sUf3NCMvguzIFDBFmBf-2" edge="1">
          <mxGeometry relative="1" as="geometry">
            <mxPoint x="144" y="652" as="targetPoint" />
          </mxGeometry>
        </mxCell>
        <mxCell id="4sUf3NCMvguzIFDBFmBf-20" value="&lt;font style=&quot;font-size: 10px;&quot;&gt;addComment()&lt;/font&gt;" style="html=1;verticalAlign=bottom;endArrow=block;entryX=1;entryY=0;strokeColor=#FF8000;fontFamily=Tahoma;fontSize=10;fontColor=#000066;" parent="XAbNOAjU0VVLo9-ZD2AN-1" source="4sUf3NCMvguzIFDBFmBf-7" target="4sUf3NCMvguzIFDBFmBf-3" edge="1">
          <mxGeometry relative="1" as="geometry">
            <mxPoint x="164" y="596" as="sourcePoint" />
          </mxGeometry>
        </mxCell>
        <mxCell id="4sUf3NCMvguzIFDBFmBf-21" value="Comment" style="html=1;verticalAlign=bottom;endArrow=open;dashed=1;endSize=8;exitX=1;exitY=0.95;strokeColor=#FF8000;fontFamily=Tahoma;fontSize=10;fontColor=#000066;" parent="XAbNOAjU0VVLo9-ZD2AN-1" source="4sUf3NCMvguzIFDBFmBf-3" target="4sUf3NCMvguzIFDBFmBf-7" edge="1">
          <mxGeometry relative="1" as="geometry">
            <mxPoint x="164" y="653" as="targetPoint" />
          </mxGeometry>
        </mxCell>
        <mxCell id="4sUf3NCMvguzIFDBFmBf-22" value="saveCheckin(Habit.HabitHistory)" style="html=1;verticalAlign=bottom;endArrow=block;entryX=0;entryY=0;strokeColor=#FF8000;fontFamily=Tahoma;fontSize=10;fontColor=#000066;" parent="XAbNOAjU0VVLo9-ZD2AN-1" target="4sUf3NCMvguzIFDBFmBf-13" edge="1">
          <mxGeometry relative="1" as="geometry">
            <mxPoint x="224" y="718" as="sourcePoint" />
          </mxGeometry>
        </mxCell>
        <mxCell id="4sUf3NCMvguzIFDBFmBf-23" value="" style="html=1;verticalAlign=bottom;endArrow=open;dashed=1;endSize=8;exitX=0;exitY=0.95;strokeColor=#FF8000;fontFamily=Tahoma;fontSize=10;fontColor=#000066;" parent="XAbNOAjU0VVLo9-ZD2AN-1" source="4sUf3NCMvguzIFDBFmBf-13" edge="1">
          <mxGeometry relative="1" as="geometry">
            <mxPoint x="224" y="736" as="targetPoint" />
          </mxGeometry>
        </mxCell>
        <mxCell id="4sUf3NCMvguzIFDBFmBf-24" value="checkinPushNotification(UserID,Habit.HabitHistory.Checkin)" style="html=1;verticalAlign=bottom;endArrow=block;entryX=0;entryY=0;strokeColor=#FF8000;fontFamily=Tahoma;fontSize=10;fontColor=#000066;" parent="XAbNOAjU0VVLo9-ZD2AN-1" target="4sUf3NCMvguzIFDBFmBf-16" edge="1">
          <mxGeometry relative="1" as="geometry">
            <mxPoint x="224" y="800" as="sourcePoint" />
          </mxGeometry>
        </mxCell>
        <mxCell id="4sUf3NCMvguzIFDBFmBf-25" value="" style="html=1;verticalAlign=bottom;endArrow=open;dashed=1;endSize=8;exitX=0;exitY=0.95;strokeColor=#FF8000;fontFamily=Tahoma;fontSize=10;fontColor=#000066;" parent="XAbNOAjU0VVLo9-ZD2AN-1" source="4sUf3NCMvguzIFDBFmBf-16" edge="1">
          <mxGeometry relative="1" as="geometry">
            <mxPoint x="224" y="810" as="targetPoint" />
          </mxGeometry>
        </mxCell>
        <mxCell id="4sUf3NCMvguzIFDBFmBf-26" value="opt" style="shape=umlFrame;whiteSpace=wrap;html=1;strokeColor=#000066;fillColor=#FF8000;fontFamily=Tahoma;fontSize=10;fontColor=#000066;align=center;width=40;height=16;" parent="XAbNOAjU0VVLo9-ZD2AN-1" vertex="1">
          <mxGeometry x="90" y="610" width="150" height="56" as="geometry" />
        </mxCell>
        <mxCell id="4sUf3NCMvguzIFDBFmBf-27" value="Comment == yes" style="text;html=1;resizable=0;points=[];autosize=1;align=left;verticalAlign=top;spacingTop=-4;fontSize=10;fontFamily=Tahoma;fontColor=#000066;" parent="XAbNOAjU0VVLo9-ZD2AN-1" vertex="1">
          <mxGeometry x="130" y="610" width="90" height="10" as="geometry" />
        </mxCell>
        <mxCell id="4sUf3NCMvguzIFDBFmBf-28" value="coach != NULL" style="text;html=1;resizable=0;points=[];autosize=1;align=left;verticalAlign=top;spacingTop=-4;fontSize=10;fontFamily=Tahoma;fontColor=#000066;" parent="XAbNOAjU0VVLo9-ZD2AN-1" vertex="1">
          <mxGeometry x="260" y="768" width="80" height="10" as="geometry" />
        </mxCell>
        <mxCell id="4sUf3NCMvguzIFDBFmBf-29" value="" style="endArrow=none;dashed=1;html=1;strokeColor=#000066;fontFamily=Tahoma;fontSize=10;fontColor=#000066;entryX=1;entryY=0.429;entryPerimeter=0;exitX=0.004;exitY=0.436;exitPerimeter=0;" parent="XAbNOAjU0VVLo9-ZD2AN-1" source="4sUf3NCMvguzIFDBFmBf-30" target="4sUf3NCMvguzIFDBFmBf-30" edge="1">
          <mxGeometry width="50" height="50" relative="1" as="geometry">
            <mxPoint x="80" y="1026" as="sourcePoint" />
            <mxPoint x="130" y="976" as="targetPoint" />
          </mxGeometry>
        </mxCell>
        <mxCell id="4sUf3NCMvguzIFDBFmBf-30" value="par" style="shape=umlFrame;whiteSpace=wrap;html=1;strokeColor=#000066;fillColor=#FF8000;fontFamily=Tahoma;fontSize=10;fontColor=#000066;align=center;width=40;height=20;" parent="XAbNOAjU0VVLo9-ZD2AN-1" vertex="1">
          <mxGeometry x="170" y="694" width="450" height="140" as="geometry" />
        </mxCell>
        <mxCell id="4sUf3NCMvguzIFDBFmBf-31" value="opt" style="shape=umlFrame;whiteSpace=wrap;html=1;strokeColor=#000066;fillColor=#FF8000;fontFamily=Tahoma;fontSize=10;fontColor=#000066;align=center;width=50;height=20;" parent="XAbNOAjU0VVLo9-ZD2AN-1" vertex="1">
          <mxGeometry x="210" y="768" width="400" height="53" as="geometry" />
        </mxCell>
        <mxCell id="ALjJiwd98mLg6pKJFKZ1-0" style="edgeStyle=orthogonalEdgeStyle;rounded=0;orthogonalLoop=1;jettySize=auto;html=1;fontFamily=Tahoma;fontSize=14;fontColor=#000066;endArrow=none;endFill=0;fillColor=#ffe6cc;strokeColor=#d79b00;" parent="XAbNOAjU0VVLo9-ZD2AN-1" source="ALjJiwd98mLg6pKJFKZ1-1" target="ALjJiwd98mLg6pKJFKZ1-3" edge="1">
          <mxGeometry relative="1" as="geometry">
            <Array as="points">
              <mxPoint x="200" y="190" />
              <mxPoint x="200" y="190" />
            </Array>
          </mxGeometry>
        </mxCell>
        <mxCell id="ALjJiwd98mLg6pKJFKZ1-1" value="User" style="shape=umlActor;verticalLabelPosition=bottom;labelBackgroundColor=#ffffff;verticalAlign=top;html=1;strokeColor=#000066;fillColor=#FF8000;fontFamily=Tahoma;fontSize=14;fontColor=#000066;" parent="XAbNOAjU0VVLo9-ZD2AN-1" vertex="1">
          <mxGeometry x="40" y="160" width="30" height="60" as="geometry" />
        </mxCell>
        <mxCell id="ALjJiwd98mLg6pKJFKZ1-2" value="" style="edgeStyle=orthogonalEdgeStyle;rounded=0;orthogonalLoop=1;jettySize=auto;html=1;endArrow=none;endFill=0;fontFamily=Tahoma;fontSize=14;fontColor=#000066;fillColor=#ffe6cc;strokeColor=#d79b00;" parent="XAbNOAjU0VVLo9-ZD2AN-1" source="ALjJiwd98mLg6pKJFKZ1-3" target="ALjJiwd98mLg6pKJFKZ1-4" edge="1">
          <mxGeometry relative="1" as="geometry">
            <Array as="points">
              <mxPoint x="370" y="190" />
              <mxPoint x="370" y="190" />
            </Array>
          </mxGeometry>
        </mxCell>
        <mxCell id="4aknmJp9HKiuCshJEBKm-6" style="edgeStyle=orthogonalEdgeStyle;rounded=0;orthogonalLoop=1;jettySize=auto;html=1;endArrow=none;endFill=0;fillColor=#ffe6cc;strokeColor=#d79b00;" parent="XAbNOAjU0VVLo9-ZD2AN-1" source="ALjJiwd98mLg6pKJFKZ1-3" target="4aknmJp9HKiuCshJEBKm-2" edge="1">
          <mxGeometry relative="1" as="geometry">
            <Array as="points">
              <mxPoint x="470" y="240" />
              <mxPoint x="470" y="240" />
            </Array>
          </mxGeometry>
        </mxCell>
        <mxCell id="ALjJiwd98mLg6pKJFKZ1-3" value="UI" style="rounded=0;whiteSpace=wrap;html=1;labelBackgroundColor=#ffffff;strokeColor=#000066;fillColor=none;fontFamily=Tahoma;fontSize=14;fontColor=#000066;" parent="XAbNOAjU0VVLo9-ZD2AN-1" vertex="1">
          <mxGeometry x="240" y="170" width="60" height="90" as="geometry" />
        </mxCell>
        <mxCell id="ALjJiwd98mLg6pKJFKZ1-4" value="Data Store" style="rounded=0;whiteSpace=wrap;html=1;labelBackgroundColor=#ffffff;strokeColor=#000066;fillColor=none;fontFamily=Tahoma;fontSize=14;fontColor=#000066;" parent="XAbNOAjU0VVLo9-ZD2AN-1" vertex="1">
          <mxGeometry x="560" y="170" width="60" height="40" as="geometry" />
        </mxCell>
        <mxCell id="ALjJiwd98mLg6pKJFKZ1-17" value="" style="endArrow=classic;html=1;fontColor=#000066;" parent="XAbNOAjU0VVLo9-ZD2AN-1" edge="1">
          <mxGeometry width="50" height="50" relative="1" as="geometry">
            <mxPoint x="100" y="180" as="sourcePoint" />
            <mxPoint x="210" y="180" as="targetPoint" />
          </mxGeometry>
        </mxCell>
        <mxCell id="ALjJiwd98mLg6pKJFKZ1-20" value="1 habitCheckin()" style="text;html=1;resizable=0;points=[];align=center;verticalAlign=middle;labelBackgroundColor=#ffffff;fontColor=#000066;" parent="ALjJiwd98mLg6pKJFKZ1-17" vertex="1" connectable="0">
          <mxGeometry x="-0.5455" y="2" relative="1" as="geometry">
            <mxPoint x="25" y="-18" as="offset" />
          </mxGeometry>
        </mxCell>
        <mxCell id="ALjJiwd98mLg6pKJFKZ1-18" value="" style="endArrow=classic;html=1;dashed=1;fontColor=#000066;" parent="XAbNOAjU0VVLo9-ZD2AN-1" edge="1">
          <mxGeometry width="50" height="50" relative="1" as="geometry">
            <mxPoint x="100" y="230" as="sourcePoint" />
            <mxPoint x="210" y="230" as="targetPoint" />
          </mxGeometry>
        </mxCell>
        <mxCell id="ALjJiwd98mLg6pKJFKZ1-22" value="1.1.1 addComment()" style="text;html=1;resizable=0;points=[];align=center;verticalAlign=middle;labelBackgroundColor=#ffffff;fontColor=#000066;" parent="ALjJiwd98mLg6pKJFKZ1-18" vertex="1" connectable="0">
          <mxGeometry x="-0.0727" y="1" relative="1" as="geometry">
            <mxPoint x="9" y="-19" as="offset" />
          </mxGeometry>
        </mxCell>
        <mxCell id="ALjJiwd98mLg6pKJFKZ1-23" value="1.1.2&amp;nbsp;Comment" style="text;html=1;resizable=0;points=[];align=center;verticalAlign=middle;labelBackgroundColor=#ffffff;fontColor=#000066;" parent="ALjJiwd98mLg6pKJFKZ1-18" vertex="1" connectable="0">
          <mxGeometry x="-0.1636" y="-1" relative="1" as="geometry">
            <mxPoint x="4" y="9" as="offset" />
          </mxGeometry>
        </mxCell>
        <mxCell id="ALjJiwd98mLg6pKJFKZ1-19" value="" style="endArrow=classic;html=1;endFill=1;fontColor=#000066;" parent="XAbNOAjU0VVLo9-ZD2AN-1" edge="1">
          <mxGeometry width="50" height="50" relative="1" as="geometry">
            <mxPoint x="210" y="200" as="sourcePoint" />
            <mxPoint x="100" y="200" as="targetPoint" />
          </mxGeometry>
        </mxCell>
        <mxCell id="ALjJiwd98mLg6pKJFKZ1-24" value="" style="endArrow=none;html=1;exitX=0.25;exitY=0;exitDx=0;exitDy=0;rounded=0;entryX=1.017;entryY=0.111;entryDx=0;entryDy=0;entryPerimeter=0;fillColor=#ffe6cc;strokeColor=#d79b00;" parent="XAbNOAjU0VVLo9-ZD2AN-1" source="ALjJiwd98mLg6pKJFKZ1-3" target="ALjJiwd98mLg6pKJFKZ1-3" edge="1">
          <mxGeometry width="50" height="50" relative="1" as="geometry">
            <mxPoint x="40" y="1180" as="sourcePoint" />
            <mxPoint x="90" y="1130" as="targetPoint" />
            <Array as="points">
              <mxPoint x="255" y="120" />
              <mxPoint x="320" y="120" />
              <mxPoint x="320" y="180" />
            </Array>
          </mxGeometry>
        </mxCell>
        <mxCell id="ALjJiwd98mLg6pKJFKZ1-25" value="" style="endArrow=classic;html=1;fontColor=#000066;" parent="XAbNOAjU0VVLo9-ZD2AN-1" edge="1">
          <mxGeometry width="50" height="50" relative="1" as="geometry">
            <mxPoint x="330" y="150" as="sourcePoint" />
            <mxPoint x="260" y="110" as="targetPoint" />
            <Array as="points">
              <mxPoint x="330" y="110" />
            </Array>
          </mxGeometry>
        </mxCell>
        <mxCell id="ALjJiwd98mLg6pKJFKZ1-26" value="1.1 newCheckin()" style="text;html=1;resizable=0;points=[];align=center;verticalAlign=middle;labelBackgroundColor=#ffffff;fontColor=#000066;" parent="ALjJiwd98mLg6pKJFKZ1-25" vertex="1" connectable="0">
          <mxGeometry x="0.4364" y="-2" relative="1" as="geometry">
            <mxPoint x="-1" y="-18" as="offset" />
          </mxGeometry>
        </mxCell>
        <mxCell id="ALjJiwd98mLg6pKJFKZ1-27" value="" style="endArrow=classic;html=1;fontColor=#000066;" parent="XAbNOAjU0VVLo9-ZD2AN-1" edge="1">
          <mxGeometry width="50" height="50" relative="1" as="geometry">
            <mxPoint x="340" y="180" as="sourcePoint" />
            <mxPoint x="540" y="180" as="targetPoint" />
          </mxGeometry>
        </mxCell>
        <mxCell id="ALjJiwd98mLg6pKJFKZ1-28" value="1.2 saveCheckin(Habit_HabitHistory)" style="text;html=1;resizable=0;points=[];align=center;verticalAlign=middle;labelBackgroundColor=#ffffff;fontColor=#000066;" parent="ALjJiwd98mLg6pKJFKZ1-27" vertex="1" connectable="0">
          <mxGeometry x="0.3167" y="2" relative="1" as="geometry">
            <mxPoint x="-31" y="-18" as="offset" />
          </mxGeometry>
        </mxCell>
        <mxCell id="4aknmJp9HKiuCshJEBKm-2" value="Coach" style="shape=umlActor;verticalLabelPosition=bottom;labelBackgroundColor=#ffffff;verticalAlign=top;html=1;strokeColor=#000066;fillColor=#FF8000;fontFamily=Tahoma;fontSize=14;fontColor=#000066;" parent="XAbNOAjU0VVLo9-ZD2AN-1" vertex="1">
          <mxGeometry x="770" y="210" width="30" height="60" as="geometry" />
        </mxCell>
        <mxCell id="4aknmJp9HKiuCshJEBKm-3" style="edgeStyle=orthogonalEdgeStyle;rounded=0;orthogonalLoop=1;jettySize=auto;html=1;entryX=0.25;entryY=1;entryDx=0;entryDy=0;endArrow=none;endFill=0;fillColor=#ffe6cc;strokeColor=#d79b00;" parent="XAbNOAjU0VVLo9-ZD2AN-1" source="ALjJiwd98mLg6pKJFKZ1-3" target="ALjJiwd98mLg6pKJFKZ1-3" edge="1">
          <mxGeometry relative="1" as="geometry">
            <Array as="points">
              <mxPoint x="320" y="250" />
              <mxPoint x="320" y="310" />
              <mxPoint x="255" y="310" />
            </Array>
          </mxGeometry>
        </mxCell>
        <mxCell id="4aknmJp9HKiuCshJEBKm-4" value="" style="endArrow=classic;html=1;fontColor=#000066;" parent="XAbNOAjU0VVLo9-ZD2AN-1" edge="1">
          <mxGeometry width="50" height="50" relative="1" as="geometry">
            <mxPoint x="330" y="280" as="sourcePoint" />
            <mxPoint x="260" y="320" as="targetPoint" />
            <Array as="points">
              <mxPoint x="330" y="320" />
            </Array>
          </mxGeometry>
        </mxCell>
        <mxCell id="4aknmJp9HKiuCshJEBKm-5" value="1.3 getCoachID()" style="text;html=1;resizable=0;points=[];align=center;verticalAlign=middle;labelBackgroundColor=#ffffff;fontColor=#000066;" parent="4aknmJp9HKiuCshJEBKm-4" vertex="1" connectable="0">
          <mxGeometry x="0.4727" y="1" relative="1" as="geometry">
            <mxPoint x="11" y="19" as="offset" />
          </mxGeometry>
        </mxCell>
        <mxCell id="7BExoTH8lzTWLg67Sfqi-0" value="" style="endArrow=classic;html=1;fontColor=#000066;" parent="XAbNOAjU0VVLo9-ZD2AN-1" edge="1">
          <mxGeometry width="50" height="50" relative="1" as="geometry">
            <mxPoint x="340" y="250" as="sourcePoint" />
            <mxPoint x="750" y="250" as="targetPoint" />
          </mxGeometry>
        </mxCell>
        <mxCell id="7BExoTH8lzTWLg67Sfqi-1" value="1.3.1 checkinPushNotification(UserID,Habit.HabitHistory.Checkin)" style="text;html=1;resizable=0;points=[];align=center;verticalAlign=middle;labelBackgroundColor=#ffffff;fontColor=#000066;" parent="7BExoTH8lzTWLg67Sfqi-0" vertex="1" connectable="0">
          <mxGeometry x="-0.3029" relative="1" as="geometry">
            <mxPoint x="77" y="20" as="offset" />
          </mxGeometry>
        </mxCell>
      </root>
    </mxGraphModel>
  </diagram>
</mxfile>
